<svg width="98" height="97" viewBox="0 0 98 97" fill="none" xmlns="http://www.w3.org/2000/svg">
<path d="M95.0997 53.1726L86.7044 61.5635C86.3875 61.8802 85.9593 62.0604 85.5112 62.0657H67.622L53.8874 48.3311L67.622 34.5966H85.5112C85.9652 34.5973 86.4004 34.7779 86.7216 35.0987L95.1169 43.4897C96.3936 44.7786 97.1084 46.5204 97.1052 48.3347C97.102 50.1489 96.381 51.8882 95.0997 53.1726ZM22.8687 27.7293H31.8606C32.77 27.7297 33.6422 28.0909 34.2856 28.7336L49.0288 43.4725L63.772 28.7336C64.4154 28.0909 65.2876 27.7297 66.197 27.7293H75.2103C75.5501 27.7295 75.8823 27.629 76.1648 27.4404C76.4474 27.2517 76.6677 26.9835 76.7977 26.6696C76.9278 26.3558 76.9618 26.0104 76.8954 25.6771C76.8291 25.3439 76.6653 25.0379 76.425 24.7978L53.8917 2.26023C52.605 0.981193 50.8645 0.263275 49.0503 0.263275C47.236 0.263275 45.4955 0.981193 44.2088 2.26023L21.6541 24.7978C21.4137 25.0379 21.25 25.3439 21.1836 25.6771C21.1173 26.0104 21.1513 26.3558 21.2813 26.6696C21.4114 26.9835 21.6316 27.2517 21.9142 27.4404C22.1968 27.629 22.529 27.7295 22.8687 27.7293ZM75.2103 68.933H66.197C65.2876 68.9325 64.4154 68.5714 63.772 67.9286L49.0288 53.1854L34.2856 67.9286C33.6422 68.5714 32.77 68.9325 31.8606 68.933H22.8473C22.5075 68.9327 22.1753 69.0332 21.8927 69.2219C21.6102 69.4105 21.3899 69.6787 21.2599 69.9926C21.1298 70.3065 21.0958 70.6519 21.1622 70.9851C21.2285 71.3183 21.3922 71.6243 21.6326 71.8644L44.1659 94.402C45.4526 95.681 47.1931 96.399 49.0073 96.399C50.8216 96.399 52.5621 95.681 53.8488 94.402L76.382 71.8644C76.62 71.627 76.783 71.3248 76.8508 70.9955C76.9186 70.6662 76.8882 70.3243 76.7634 70.0121C76.6386 69.6999 76.425 69.4312 76.1489 69.2394C75.8728 69.0476 75.5464 68.941 75.2103 68.933ZM44.1959 48.3311L30.4614 34.5966H12.5463C12.0924 34.5973 11.6572 34.7779 11.336 35.0987L2.95789 43.4897C1.67886 44.7764 0.960938 46.5169 0.960938 48.3311C0.960938 50.1454 1.67886 51.8859 2.95789 53.1726L11.3531 61.5635C11.6701 61.8802 12.0983 62.0604 12.5463 62.0657H30.4356L44.1959 48.3311Z" fill="#081D30"/>
</svg>
